<?xml version="1.0" encoding="UTF-8" standalone="no"?>
<svg
   width="78.794998mm"
   height="83.239998mm"
   viewBox="0 0 78.794998 83.239998"
   version="1.1"
   id="svg8"
   inkscape:version="1.2.1 (9c6d41e410, 2022-07-14)"
   sodipodi:docname="c2a.svg"
   xmlns:inkscape="http://www.inkscape.org/namespaces/inkscape"
   xmlns:sodipodi="http://sodipodi.sourceforge.net/DTD/sodipodi-0.dtd"
   xmlns:xlink="http://www.w3.org/1999/xlink"
   xmlns="http://www.w3.org/2000/svg"
   xmlns:svg="http://www.w3.org/2000/svg"
   xmlns:rdf="http://www.w3.org/1999/02/22-rdf-syntax-ns#"
   xmlns:cc="http://creativecommons.org/ns#"
   xmlns:dc="http://purl.org/dc/elements/1.1/">
  <defs
     id="defs2">
    <linearGradient
       inkscape:collect="always"
       id="linearGradient570">
      <stop
         style="stop-color:#15a7be;stop-opacity:1"
         offset="0"
         id="stop566" />
      <stop
         style="stop-color:#97d18f;stop-opacity:1;"
         offset="1"
         id="stop568" />
    </linearGradient>
    <clipPath
       clipPathUnits="userSpaceOnUse"
       id="clipPath849">
      <path
         d="M 0,0 H 189066 V 189066 H 0 Z"
         id="path847" />
    </clipPath>
    <clipPath
       clipPathUnits="userSpaceOnUse"
       id="clipPath1521">
      <rect
         style="fill:#000080;stroke-width:2.082"
         id="rect1523"
         width="108.51143"
         height="71.093697"
         x="52.384827"
         y="68.955536" />
    </clipPath>
    <linearGradient
       inkscape:collect="always"
       xlink:href="#linearGradient570"
       id="linearGradient572"
       x1="129.36235"
       y1="92.037201"
       x2="69.07515"
       y2="128.13393"
       gradientUnits="userSpaceOnUse" />
    <linearGradient
       inkscape:collect="always"
       xlink:href="#linearGradient570"
       id="linearGradient3110"
       gradientUnits="userSpaceOnUse"
       x1="129.36235"
       y1="92.037201"
       x2="69.07515"
       y2="128.13393" />
    <linearGradient
       inkscape:collect="always"
       xlink:href="#linearGradient570"
       id="linearGradient3112"
       gradientUnits="userSpaceOnUse"
       x1="129.36235"
       y1="92.037201"
       x2="69.07515"
       y2="128.13393" />
    <linearGradient
       inkscape:collect="always"
       xlink:href="#linearGradient570"
       id="linearGradient3114"
       gradientUnits="userSpaceOnUse"
       x1="129.36235"
       y1="92.037201"
       x2="69.07515"
       y2="128.13393" />
    <linearGradient
       inkscape:collect="always"
       xlink:href="#linearGradient570"
       id="linearGradient3116"
       gradientUnits="userSpaceOnUse"
       x1="129.36235"
       y1="92.037201"
       x2="69.07515"
       y2="128.13393" />
    <linearGradient
       inkscape:collect="always"
       xlink:href="#linearGradient570"
       id="linearGradient3118"
       gradientUnits="userSpaceOnUse"
       x1="129.36235"
       y1="92.037201"
       x2="69.07515"
       y2="128.13393" />
    <linearGradient
       inkscape:collect="always"
       xlink:href="#linearGradient570"
       id="linearGradient3120"
       gradientUnits="userSpaceOnUse"
       x1="129.36235"
       y1="92.037201"
       x2="69.07515"
       y2="128.13393" />
  </defs>
  <sodipodi:namedview
     id="base"
     pagecolor="#ffffff"
     bordercolor="#666666"
     borderopacity="1.0"
     inkscape:pageopacity="0.0"
     inkscape:pageshadow="2"
     inkscape:zoom="1.4"
     inkscape:cx="267.85714"
     inkscape:cy="239.28571"
     inkscape:document-units="mm"
     inkscape:current-layer="layer1"
     inkscape:document-rotation="0"
     showgrid="false"
     inkscape:window-width="1920"
     inkscape:window-height="1009"
     inkscape:window-x="1912"
     inkscape:window-y="-8"
     inkscape:window-maximized="1"
     inkscape:showpageshadow="2"
     inkscape:pagecheckerboard="0"
     inkscape:deskcolor="#d1d1d1" />
  <metadata
     id="metadata5">
    <rdf:RDF>
      <cc:Work
         rdf:about="">
        <dc:format>image/svg+xml</dc:format>
        <dc:type
           rdf:resource="http://purl.org/dc/dcmitype/StillImage" />
      </cc:Work>
    </rdf:RDF>
  </metadata>
  <g
     inkscape:label="Layer 1"
     inkscape:groupmode="layer"
     id="layer1">
    <g
       id="g436"
       transform="translate(0.09449405,5.6696429)"
       style="fill:url(#linearGradient3110);fill-opacity:1" />
    <g
       id="g2745"
       transform="translate(-63.946557,-95.71085)">
      <path
         style="fill:url(#linearGradient3112);fill-opacity:1;stroke-width:0.264583"
         d="m 75.531952,103.7534 c -1.898268,0.0542 -2.023371,-4.06891 0.269812,-4.058052 h 3.199053 3.199054 c 2.312069,0.0074 2.340802,4.228332 0.219912,4.233332 l -3.23084,-0.0307 c -1.776961,-0.0169 -3.422608,-0.082 -3.656995,-0.14459 z"
         id="path244"
         sodipodi:nodetypes="ccccccsc"
         transform="translate(0.09449405,5.669643)" />
      <path
         style="fill:url(#linearGradient3114);fill-opacity:1;stroke-width:0.306773"
         d="m 74.005508,112.21595 c -2.551934,0.0542 -2.720116,-4.06891 0.362722,-4.05806 h 4.300642 4.300644 c 3.108227,0.007 3.146854,4.22834 0.295638,4.23334 l -4.343375,-0.0307 c -2.388855,-0.0169 -4.601178,-0.082 -4.916276,-0.14459 z"
         id="path244-0"
         sodipodi:nodetypes="ccccccsc"
         transform="translate(0.09449405,5.669643)" />
      <path
         style="fill:url(#linearGradient3116);fill-opacity:1;stroke-width:0.222081"
         d="m 65.021475,103.35697 c -1.544199,0.0469 -1.645967,-3.523955 0.219486,-3.514555 h 2.602359 2.602359 c 1.880817,0.006 1.904191,3.662035 0.178894,3.666365 l -2.628217,-0.0266 c -1.445518,-0.0146 -2.784216,-0.071 -2.974884,-0.12522 z"
         id="path244-5"
         sodipodi:nodetypes="ccccccsc"
         transform="translate(0.09449405,5.669643)" />
      <path
         style="fill:url(#linearGradient3118);fill-opacity:1;stroke-width:0.222081"
         d="m 77.518313,119.98794 c -1.544199,0.0469 -1.645967,-3.52396 0.219486,-3.51456 h 2.602359 2.602359 c 1.880817,0.006 1.904191,3.66204 0.178894,3.66637 l -2.628217,-0.0266 c -1.445518,-0.0146 -2.784216,-0.071 -2.974884,-0.12522 z"
         id="path244-5-0"
         sodipodi:nodetypes="ccccccsc"
         transform="translate(0.09449405,5.669643)" />
      <path
         style="fill:url(#linearGradient3120);fill-opacity:1;stroke-width:0.222081"
         d="m 83.849414,128.16167 c -1.544199,0.0469 -1.645967,-3.52396 0.219486,-3.51456 h 2.602359 2.602359 c 1.880817,0.006 1.904191,3.66204 0.178894,3.66637 l -2.628217,-0.0266 c -1.445518,-0.0146 -2.784216,-0.071 -2.974884,-0.12522 z"
         id="path244-5-0-9"
         sodipodi:nodetypes="ccccccsc"
         transform="translate(0.09449405,5.669643)" />
      <path
         style="fill:url(#linearGradient572);fill-opacity:1;stroke-width:0.264583"
         d="m 110.37369,134.59062 c -4.17592,-0.60838 -8.07545,-2.3754 -11.42958,-5.17916 l -1.365115,-1.14111 H 95.474062 93.36913 c -2.166508,-0.34478 -1.891904,-4.23222 -0.09542,-4.23334 h 2.343386 2.343388 c 2.497916,0.005 2.484516,-3.70277 0.190781,-3.70382 l -5.757281,-0.0663 -5.048575,-0.16079 c -2.899169,-0.0124 -2.508226,-4.24118 -1.46e-4,-4.23334 l 4.692238,-0.0378 5.400942,-0.13229 c 2.248503,-0.007 2.21066,-3.55656 -0.271706,-3.57188 h -4.429128 -4.429127 c -2.536219,0.0755 -2.33616,-4.02889 -0.08371,-4.13884 l 7.112389,-0.0945 c 2.347714,-0.0371 2.284021,-3.96176 -0.136703,-3.96875 h -4.229325 -4.229322 c -2.21802,0.0632 -2.290367,-4.150562 -0.305329,-4.101042 l 7.952406,-0.13229 7.952412,-0.13229 c 1.64881,-0.04676 1.6652,-3.651828 -0.13399,-3.676024 l -1.70025,0.03058 c -2.861672,0.05147 -2.145589,-0.403646 -0.953739,-1.19974 1.059189,-0.723432 1.807419,-1.105675 2.653649,-1.639009 8.61354,-5.462548 21.37362,-3.354367 28.36131,4.685762 1.38309,1.59141 1.63935,1.21283 -2.41531,3.568073 -4.60984,2.67771 -4.18239,2.58735 -5.75049,1.21561 -8.75185,-7.655899 -22.17048,-1.58593 -22.0609,9.97933 0.10844,11.44499 13.56824,17.37289 22.07785,9.72344 1.55754,-1.4001 1.01405,-1.50459 5.45927,1.04967 4.47584,2.57186 4.33824,2.10409 1.45109,4.933 -5.17507,5.07068 -12.02262,7.36699 -18.95605,6.35687 z"
         id="path234"
         sodipodi:nodetypes="ssccccccccccccccccccccccccsccsssssssss"
         transform="translate(0.09449405,5.669643)" />
      <g
         aria-label="C2A"
         id="text1527"
         style="font-weight:bold;font-size:33.2303px;line-height:1.25;font-family:Beograd;-inkscape-font-specification:'Beograd Bold';fill:#15a7be;stroke-width:0.890096">
        <path
           id="path462"
           d="m 124.12421,143.68425 -7.70961,23.02857 h 5.41672 l 1.26298,-3.75532 h 9.76942 l 1.26298,3.75532 h 5.4162 l -7.70909,-23.02857 z m 3.85454,4.68551 3.1905,9.43715 h -6.34741 z" />
        <path
           d="m 90.295781,151.62621 q -0.897219,-1.32921 -2.12674,-2.02705 -1.19629,-0.69783 -2.492272,-0.83075 -1.295982,-0.13293 -2.591964,0.26584 -1.262751,0.39876 -2.29289,1.22952 -0.996909,0.83076 -1.628285,2.09351 -0.631376,1.22952 -0.631376,2.82457 0,1.59506 0.631376,2.85781 0.631376,1.22952 1.628285,2.06028 1.030139,0.83076 2.29289,1.22952 1.295982,0.36553 2.591964,0.23261 1.295982,-0.13292 2.492272,-0.79753 1.229521,-0.69783 2.12674,-2.02704 l 4.286708,2.8578 q -1.063369,1.59506 -2.525502,2.72489 -1.462134,1.12983 -3.190109,1.7612 -1.694746,0.59815 -3.555643,0.66461 -1.860896,0.0665 -3.688563,-0.49846 -1.827666,-0.56491 -3.35626,-1.62828 -1.495364,-1.0966 -2.591964,-2.55873 -1.063369,-1.46214 -1.661515,-3.22334 -0.598145,-1.76121 -0.598145,-3.65534 0,-1.92735 0.598145,-3.68856 0.598146,-1.76121 1.661515,-3.22334 1.0966,-1.46213 2.591964,-2.5255 1.528594,-1.06337 3.35626,-1.62829 1.827667,-0.56491 3.688563,-0.49845 1.860897,0.0665 3.555643,0.69784 1.727975,0.59814 3.190109,1.72797 1.462133,1.12983 2.525502,2.72489 z"
           id="path472" />
        <path
           d="M 107.57554,166.71277 H 97.307378 v -5.1507 -1.26275 q 0,-1.32921 0.498455,-2.49227 0.498455,-1.19629 1.362442,-2.06028 0.897215,-0.86399 2.060275,-1.36244 1.16306,-0.53169 2.49228,-0.53169 h 3.85471 q 1.06337,0 1.82767,-0.73106 0.76429,-0.7643 0.76429,-1.82767 0,-0.53169 -0.19938,-0.99691 -0.19938,-0.46522 -0.56491,-0.79753 -0.3323,-0.36553 -0.83076,-0.56491 -0.46522,-0.19938 -0.99691,-0.19938 h -3.85471 -6.413452 v -5.1507 h 6.413452 3.85471 q 1.59506,0 2.99073,0.63137 1.39567,0.59815 2.42581,1.66152 1.06337,1.03014 1.66152,2.42581 0.63137,1.39567 0.63137,2.99073 0,1.59505 -0.63137,3.02396 -0.59815,1.39567 -1.66152,2.45904 -1.03014,1.03014 -2.42581,1.62828 -1.39567,0.59815 -2.99073,0.59815 h -3.85471 q -0.53169,0 -0.89722,0.36553 -0.36553,0.36554 -0.36553,0.93045 v 1.26275 h 5.11746 1.29598 3.85472 2.55873 v 5.1507 h -3.85471 -2.55874 z"
           id="path470" />
      </g>
      <path
         d="m 79.465467,171.88705 h -2.614031 v 6.92753 h -0.546012 v -6.92753 h -2.58673 v -0.54601 h 5.746773 z"
         id="path475"
         style="font-size:13.9779px;line-height:1.25;font-family:'Microsoft Yi Baiti';-inkscape-font-specification:'Microsoft Yi Baiti';stroke-width:0.374408" />
      <path
         d="m 86.215537,178.81458 h -5.398691 v -7.47354 h 5.214412 v 0.54601 h -4.6684 v 2.76419 h 4.374918 v 0.54601 h -4.374918 v 3.07131 h 4.852679 z"
         id="path477"
         style="font-size:13.9779px;line-height:1.25;font-family:'Microsoft Yi Baiti';-inkscape-font-specification:'Microsoft Yi Baiti';stroke-width:0.374408" />
      <path
         d="m 93.313688,173.34081 q -0.07508,-0.33443 -0.279831,-0.62109 -0.204754,-0.29348 -0.511886,-0.50506 -0.307131,-0.21841 -0.709815,-0.34126 -0.395858,-0.12285 -0.853143,-0.12285 -0.648389,0 -1.18075,0.21158 -0.525537,0.21158 -0.90092,0.62791 -0.368558,0.40951 -0.573312,1.0306 -0.197929,0.61426 -0.197929,1.43328 0,0.81902 0.197929,1.44693 0.204754,0.62109 0.573312,1.04425 0.375383,0.42316 0.894094,0.64156 0.525537,0.21841 1.1671,0.21841 0.969171,0 1.597085,-0.42999 0.627913,-0.43681 0.778066,-1.26948 h 0.566488 q -0.0819,0.53237 -0.334433,0.95553 -0.25253,0.41633 -0.634738,0.70299 -0.382208,0.28665 -0.880444,0.4368 -0.498236,0.15016 -1.078373,0.15016 -0.791717,0 -1.426456,-0.27301 -0.627913,-0.27983 -1.071548,-0.78489 -0.443634,-0.50506 -0.682514,-1.2217 -0.23888,-0.72347 -0.23888,-1.61756 0,-0.88727 0.23888,-1.59708 0.23888,-0.70982 0.682514,-1.20806 0.45046,-0.50506 1.078373,-0.77124 0.634739,-0.273 1.419631,-0.273 0.539186,0 1.023772,0.15698 0.49141,0.15697 0.880444,0.44363 0.389033,0.27983 0.655214,0.67569 0.26618,0.38903 0.368558,0.85997 z"
         id="path479"
         style="font-size:13.9779px;line-height:1.25;font-family:'Microsoft Yi Baiti';-inkscape-font-specification:'Microsoft Yi Baiti';stroke-width:0.374408" />
      <path
         d="m 101.30593,178.81458 h -0.71664 l -4.559193,-6.82515 v 6.82515 h -0.546012 v -7.47354 h 0.750766 l 4.525069,6.8115 v -6.8115 h 0.54601 z"
         id="path481"
         style="font-size:13.9779px;line-height:1.25;font-family:'Microsoft Yi Baiti';-inkscape-font-specification:'Microsoft Yi Baiti';stroke-width:0.374408" />
      <path
         d="m 106.36337,171.20454 q 0.76441,0 1.4128,0.273 0.64839,0.27301 1.1125,0.77807 0.47094,0.50506 0.73029,1.21488 0.26618,0.70981 0.26618,1.58343 0,0.86679 -0.25935,1.58343 -0.25936,0.71664 -0.73029,1.23536 -0.46411,0.51188 -1.1125,0.79854 -0.64157,0.27983 -1.41963,0.27983 -0.77807,0 -1.42646,-0.27983 -0.64839,-0.28666 -1.11932,-0.79854 -0.46411,-0.51189 -0.72347,-1.22853 -0.25935,-0.71664 -0.25935,-1.59026 0,-0.88044 0.25935,-1.59026 0.26618,-0.70981 0.73712,-1.20805 0.47093,-0.50506 1.1125,-0.77807 0.64839,-0.273 1.41963,-0.273 z m -0.007,7.20053 q 0.64157,0 1.18075,-0.21841 0.54601,-0.22523 0.94187,-0.65521 0.39586,-0.42999 0.61427,-1.05107 0.2184,-0.62792 0.2184,-1.42646 0,-0.80537 -0.22523,-1.41963 -0.2184,-0.61426 -0.61426,-1.0306 -0.38904,-0.42316 -0.92822,-0.63474 -0.53236,-0.2184 -1.1671,-0.2184 -0.64839,0 -1.1944,0.2184 -0.53919,0.21841 -0.93505,0.64157 -0.39586,0.41633 -0.62109,1.03059 -0.2184,0.61427 -0.2184,1.41281 0,0.79854 0.2184,1.42646 0.21841,0.62108 0.60744,1.05107 0.39586,0.42998 0.93505,0.65521 0.54601,0.21841 1.18757,0.21841 z"
         id="path483"
         style="font-size:13.9779px;line-height:1.25;font-family:'Microsoft Yi Baiti';-inkscape-font-specification:'Microsoft Yi Baiti';stroke-width:0.374408" />
      <path
         d="m 115.88445,178.81458 h -4.40222 v -7.47354 h 0.54601 v 6.92752 h 3.85621 z"
         id="path485"
         style="font-size:13.9779px;line-height:1.25;font-family:'Microsoft Yi Baiti';-inkscape-font-specification:'Microsoft Yi Baiti';stroke-width:0.374408" />
      <path
         d="m 120.52555,171.20454 q 0.76441,0 1.4128,0.273 0.64839,0.27301 1.1125,0.77807 0.47094,0.50506 0.73029,1.21488 0.26618,0.70981 0.26618,1.58343 0,0.86679 -0.25935,1.58343 -0.25936,0.71664 -0.73029,1.23536 -0.46411,0.51188 -1.1125,0.79854 -0.64157,0.27983 -1.41963,0.27983 -0.77807,0 -1.42646,-0.27983 -0.64839,-0.28666 -1.11932,-0.79854 -0.46411,-0.51189 -0.72347,-1.22853 -0.25935,-0.71664 -0.25935,-1.59026 0,-0.88044 0.25935,-1.59026 0.26618,-0.70981 0.73712,-1.20805 0.47093,-0.50506 1.1125,-0.77807 0.64838,-0.273 1.41963,-0.273 z m -0.007,7.20053 q 0.64156,0 1.18075,-0.21841 0.54601,-0.22523 0.94187,-0.65521 0.39586,-0.42999 0.61426,-1.05107 0.21841,-0.62792 0.21841,-1.42646 0,-0.80537 -0.22523,-1.41963 -0.21841,-0.61426 -0.61426,-1.0306 -0.38904,-0.42316 -0.92822,-0.63474 -0.53237,-0.2184 -1.1671,-0.2184 -0.64839,0 -1.1944,0.2184 -0.53919,0.21841 -0.93505,0.64157 -0.39586,0.41633 -0.62109,1.03059 -0.2184,0.61427 -0.2184,1.41281 0,0.79854 0.2184,1.42646 0.21841,0.62108 0.60744,1.05107 0.39586,0.42998 0.93505,0.65521 0.54601,0.21841 1.18757,0.21841 z"
         id="path487"
         style="font-size:13.9779px;line-height:1.25;font-family:'Microsoft Yi Baiti';-inkscape-font-specification:'Microsoft Yi Baiti';stroke-width:0.374408" />
      <path
         d="m 128.82492,178.95108 q -0.79854,0 -1.46058,-0.27983 -0.65521,-0.27983 -1.12615,-0.78489 -0.47093,-0.51189 -0.73029,-1.22853 -0.25253,-0.72347 -0.25253,-1.60391 0,-0.88727 0.25936,-1.59708 0.25935,-0.70982 0.72346,-1.20806 0.47094,-0.50506 1.11933,-0.77124 0.64839,-0.273 1.43328,-0.273 0.61426,0 1.14662,0.15698 0.53236,0.15015 0.9487,0.4368 0.41633,0.27984 0.68934,0.67569 0.273,0.39586 0.37538,0.88045 h -0.58696 q -0.0546,-0.32761 -0.26618,-0.61426 -0.20476,-0.29349 -0.53919,-0.51189 -0.33443,-0.21841 -0.77807,-0.34808 -0.44363,-0.12968 -0.97599,-0.12968 -0.65522,0 -1.20123,0.21158 -0.54601,0.21158 -0.94187,0.63474 -0.38903,0.41633 -0.60744,1.03742 -0.2184,0.61426 -0.2184,1.41963 0,0.79854 0.2184,1.42646 0.21841,0.62108 0.60744,1.05107 0.39586,0.42998 0.94187,0.65521 0.55284,0.21841 1.21488,0.21841 0.92822,0 1.61073,-0.35491 0.68252,-0.35491 1.15345,-0.98282 v -1.34456 h -2.06119 v -0.54601 h 2.6072 v 3.63781 h -0.31395 l -0.23888,-0.99648 q -0.25936,0.31396 -0.57331,0.53237 -0.31396,0.21157 -0.66887,0.34808 -0.34808,0.12968 -0.73029,0.1911 -0.38221,0.0614 -0.77807,0.0614 z"
         id="path489"
         style="font-size:13.9779px;line-height:1.25;font-family:'Microsoft Yi Baiti';-inkscape-font-specification:'Microsoft Yi Baiti';stroke-width:0.374408" />
      <path
         d="m 134.66042,178.81458 h -0.54601 v -7.47354 h 0.54601 z"
         id="path491"
         style="font-size:13.9779px;line-height:1.25;font-family:'Microsoft Yi Baiti';-inkscape-font-specification:'Microsoft Yi Baiti';stroke-width:0.374408" />
      <path
         d="m 142.7414,178.81458 h -0.65522 l -0.91457,-2.40246 h -3.67875 q -0.19793,0.56649 -0.42999,1.20123 -0.23205,0.62791 -0.44363,1.20123 h -0.58014 q 0.36856,-0.96918 0.72347,-1.8974 0.36173,-0.92822 0.71664,-1.84278 0.35491,-0.9214 0.70981,-1.84962 0.36174,-0.92822 0.73029,-1.89057 h 0.77125 z m -1.72677,-2.83244 -1.73358,-4.15651 -1.64486,4.15651 z"
         id="path493"
         style="font-size:13.9779px;line-height:1.25;font-family:'Microsoft Yi Baiti';-inkscape-font-specification:'Microsoft Yi Baiti';stroke-width:0.374408" />
    </g>
  </g>
</svg>
